<svg width="24" height="24" viewBox="0 0 24 24" fill="none" xmlns="http://www.w3.org/2000/svg">
<g clip-path="url(#clip0_28_203)">
<path fill-rule="evenodd" clip-rule="evenodd" d="M0 12C0 18.6274 5.3726 24 12 24C18.6274 24 24 18.6274 24 12C24 5.3726 18.6274 0 12 0C5.3726 0 0 5.3726 0 12ZM9.8 17.5L10.0042 14.4411L15.5684 9.4195C15.8126 9.20275 15.5152 9.09705 15.191 9.29365L8.32365 13.6262L5.35735 12.7003C4.71675 12.5042 4.71215 12.064 5.50115 11.7476L17.0602 7.29045C17.5881 7.05075 18.0976 7.41725 17.8961 8.22525L15.9276 17.5016C15.7901 18.1608 15.3919 18.3184 14.84 18.0139L11.8413 15.7985L10.4 17.2C10.3954 17.2044 10.3909 17.2088 10.3864 17.2132C10.2252 17.3701 10.0919 17.5 9.8 17.5Z" fill="#F57676"/>
</g>
<defs>
<clipPath id="clip0_28_203">
<rect width="24" height="24" fill="FBFBFB"/>
</clipPath>
</defs>
</svg>
